<?xml version="1.0" encoding="utf-8"?>
<!-- Generator: Adobe Illustrator 21.1.0, SVG Export Plug-In . SVG Version: 6.00 Build 0)  -->
<svg version="1.1" id="Layer_1" xmlns="http://www.w3.org/2000/svg" xmlns:xlink="http://www.w3.org/1999/xlink" x="0px" y="0px"
	 viewBox="0 0 220 50" style="enable-background:new 0 0 220 50;" xml:space="preserve">
<style type="text/css">
	.st0{fill:#FFFFFF;}
</style>
<g>
	<path class="st0" d="M52.3,15.6c-1.4-0.6-2.8-1.3-2.8-3.1v-0.1c0-1.3,1.4-2.3,3.3-2.3H53c0.7,0,1.4,0.3,2,0.7
		c0.4,0.3,0.9,0.4,1.3,0.4c0.7,0,1.3-0.3,1.7-0.9c0.3-0.4,0.4-0.9,0.4-1.3c0-0.6-0.3-1.3-0.9-1.7c-1.3-1-2.9-1.6-4.4-1.6h-0.3
		c-1.9,0-3.7,0.6-5.1,1.7c-1.6,1.2-2.4,2.9-2.5,4.8v0.3c0,3.3,1.9,5.7,5.7,7.1l0.1,0.1c1.4,0.4,4.6,1.9,4.7,3.6v0.1
		c0,1-0.4,1.9-1.1,2.7c-0.8,0.8-1.8,1.2-3.1,1.2h-0.2c-1.5,0-2.8-0.9-3.4-2.1c-0.4-0.8-1.2-1.3-2-1.3c-0.3,0-0.6,0-0.9,0.2
		c-0.8,0.4-1.3,1.1-1.3,2c0,0.3,0,0.6,0.2,0.9c1.3,2.8,4,4.6,7.2,4.7h0.3c2.4,0,4.7-0.9,6.3-2.5c1.5-1.5,2.3-3.5,2.3-5.7v-0.4
		C59.8,18.1,53.4,16,52.3,15.6L52.3,15.6z M74.3,31.8c6.8,0,12.4-5.8,12.4-13c0-7.1-5.6-13-12.4-13s-12.4,5.8-12.4,13
		S67.4,31.8,74.3,31.8L74.3,31.8z M74.3,10.2c4.5,0,8.1,3.8,8.1,8.6s-3.6,8.6-8.1,8.6c-4.4,0-8.1-3.8-8.1-8.6S69.8,10.2,74.3,10.2
		L74.3,10.2z M106.7,26.4c-1.2,0.7-2.7,1-4.1,1c-4.7,0-8.6-3.8-8.6-8.6s3.9-8.6,8.6-8.6c1.4,0,2.9,0.3,4.1,1c1.1,0.6,2.4,0.2,3-0.9
		c0.6-1,0.1-2.3-0.9-2.9c-1.9-1-4-1.6-6.2-1.6c-7.1,0-13,5.8-13,13c0,7.1,5.8,13,13,13c2.2,0,4.3-0.6,6.2-1.6c1-0.6,1.4-1.9,0.9-2.9
		C109.1,26.2,107.8,25.9,106.7,26.4L106.7,26.4z M115.4,31.8c1.2,0,2.1-1,2.1-2.1V8c0-1.2-1-2.1-2.1-2.1c-1.2,0-2.1,1-2.1,2.1v21.6
		C113.3,30.8,114.2,31.8,115.4,31.8L115.4,31.8z M133.3,31.8c6.8,0,12.4-5.8,12.4-13c0-7.1-5.6-13-12.4-13c-6.8,0-12.4,5.8-12.4,13
		S126.5,31.8,133.3,31.8L133.3,31.8z M133.3,10.2c4.5,0,8.1,3.8,8.1,8.6s-3.6,8.6-8.1,8.6c-4.4,0-8.1-3.8-8.1-8.6
		S128.9,10.2,133.3,10.2L133.3,10.2z M170.3,31.8c1.2,0,2.2-1,2.2-2.1V8c0-1.1-0.9-2.1-2.2-2.1c-0.7,0-1.3,0.3-1.7,0.9l-8,10.7
		l-8-10.7c-0.4-0.6-1-0.9-1.7-0.9c-1.3,0-2.2,1-2.2,2.1v21.6c0,1.2,1,2.1,2.1,2.1c1.2,0,2.2-1,2.2-2.1V14.5l5.8,7.8
		c0.4,0.6,1.1,0.9,1.7,0.9c0.7,0,1.3-0.3,1.7-0.9l5.8-7.8v15.1C168.1,30.8,169.1,31.8,170.3,31.8L170.3,31.8z M177.9,31.8
		c1.2,0,2.1-1,2.1-2.1V8c0-1.2-1-2.1-2.1-2.1c-1.2,0-2.1,1-2.1,2.1v21.6C175.8,30.8,176.7,31.8,177.9,31.8L177.9,31.8z M195.3,31.8
		c1.2,0,2.2-1,2.2-2.1c0-1.2-1-2.2-2.2-2.2h-7.5V8c0-1.2-1-2.1-2.1-2.1c-1.2,0-2.2,1-2.2,2.1v21.6c0,1.2,1,2.1,2.2,2.1L195.3,31.8
		L195.3,31.8z M214.8,27.5h-9.7V21h7.5c1.2,0,2.1-1,2.1-2.1c0-1.2-1-2.1-2.1-2.1h-7.5v-6.5h9.7c1.2,0,2.2-1,2.2-2.2S216,6,214.8,6
		H203c-1.2,0-2.2,1-2.2,2.1v21.6c0,1.2,1,2.1,2.2,2.1h11.8c1.2,0,2.2-1,2.2-2.1C217,28.4,216,27.5,214.8,27.5z"/>
	<g>
		<path class="st0" d="M6.5,31.7c2.3,0.9,4.4,1.6,6.7,1.9c1.9,0.3,3.8,0.4,5.7,0c3.5-0.7,5.8-2.8,7-6.1c0.7-1.9,1-3.9,1-5.9
			c-0.1-2.8,2.1-5.1,4.9-5.1s5.1,2.2,5.1,5c-0.1,4.8-1.9,9-5.4,12.3C24.2,40.5,13,39.7,6.6,32C6.6,32,6.6,31.9,6.5,31.7z"/>
		<path class="st0" d="M23.6,28.6c-1.6,2.3-3.6,3.6-6.3,4c-2.7,0.4-5.3-0.1-7.9-0.9c-1.3-0.4-2.6-1-3.8-1.5
			c-0.2-0.1-0.4-0.3-0.5-0.5C3.7,27.1,3,24.4,3,21.6c0-2,0.9-3.6,2.8-4.5c1.9-0.8,3.7-0.6,5.3,0.7c1.3,1.1,1.8,2.5,1.7,4.2
			c-0.2,3,1,5.2,3.5,6.7C18.7,30.1,21.1,30,23.6,28.6z"/>
		<path class="st0" d="M26.9,5.8c2.5,0,4.6,2,4.6,4.6s-2,4.6-4.6,4.6s-4.6-2-4.6-4.6C22.3,7.9,24.3,5.8,26.9,5.8z"/>
		<path class="st0" d="M12.8,15c-2.5,0-4.5-2-4.6-4.5c0-2.5,2-4.5,4.5-4.5s4.5,2,4.5,4.6C17.3,13,15.3,15,12.8,15z"/>
	</g>
	<path class="st0" d="M47.7,45.9c-1.2,0-2.2-0.4-2.9-1.2s-1.1-1.8-1.1-3.1c0-1.4,0.4-2.5,1.1-3.3c0.7-0.8,1.7-1.2,3-1.2
		c1.2,0,2.1,0.4,2.8,1.2s1.1,1.8,1.1,3.1c0,1.4-0.4,2.5-1.1,3.3C50,45.5,49,45.9,47.7,45.9L47.7,45.9z M47.8,38
		c-0.9,0-1.6,0.3-2.2,1c-0.6,0.6-0.8,1.5-0.8,2.5s0.3,1.9,0.8,2.5s1.3,1,2.1,1c0.9,0,1.7-0.3,2.2-0.9c0.5-0.6,0.8-1.5,0.8-2.6
		s-0.3-2-0.8-2.6C49.5,38.3,48.7,38,47.8,38L47.8,38z M62.7,45.8h-1v-3.5c0-0.7-0.1-1.2-0.3-1.5s-0.6-0.5-1-0.5s-0.8,0.2-1.1,0.6
		c-0.3,0.4-0.4,0.8-0.4,1.4v3.5h-1v-3.6c0-1.2-0.5-1.8-1.4-1.8c-0.4,0-0.8,0.2-1.1,0.5c-0.3,0.4-0.4,0.8-0.4,1.4v3.5h-1v-6.1h1v1
		l0,0c0.4-0.7,1.1-1.1,1.9-1.1c0.4,0,0.8,0.1,1.1,0.3s0.5,0.5,0.6,0.9c0.4-0.8,1.1-1.3,2-1.3c1.3,0,2,0.8,2,2.5L62.7,45.8L62.7,45.8
		z M70.2,45.8h-1v-3.5c0-1.3-0.5-1.9-1.4-1.9c-0.5,0-0.9,0.2-1.2,0.5c-0.3,0.4-0.5,0.8-0.5,1.4v3.5h-1v-6.1h1v1l0,0
		c0.5-0.8,1.1-1.1,2-1.1c0.7,0,1.2,0.2,1.5,0.6c0.4,0.4,0.5,1,0.5,1.9L70.2,45.8L70.2,45.8z M73.2,38.2c-0.2,0-0.3-0.1-0.4-0.2
		c-0.1-0.1-0.2-0.3-0.2-0.4c0-0.2,0.1-0.3,0.2-0.5c0.1-0.1,0.3-0.2,0.4-0.2c0.2,0,0.3,0.1,0.5,0.2c0.1,0.1,0.2,0.3,0.2,0.5
		s-0.1,0.3-0.2,0.4C73.5,38.1,73.4,38.2,73.2,38.2L73.2,38.2z M73.7,44.1c0,0.6,0.2,0.8,0.6,0.8c0.2,0,0.3,0,0.5-0.1v0.9
		c-0.1,0-0.2,0-0.3,0.1c-0.1,0-0.3,0-0.4,0c-0.2,0-0.4,0-0.5-0.1c-0.2-0.1-0.3-0.2-0.4-0.3s-0.2-0.3-0.3-0.5
		c-0.1-0.2-0.1-0.4-0.1-0.7v-4.6h1L73.7,44.1L73.7,44.1z M85.8,45.4c-0.6,0.3-1.4,0.5-2.3,0.5c-1.2,0-2.2-0.4-2.9-1.2
		c-0.7-0.8-1.1-1.8-1.1-3.1c0-1.4,0.4-2.5,1.2-3.3c0.8-0.8,1.9-1.3,3.1-1.3c0.8,0,1.5,0.1,2,0.4v1.1c-0.6-0.3-1.3-0.5-2-0.5
		c-1,0-1.8,0.3-2.4,1s-0.9,1.5-0.9,2.6c0,1,0.3,1.9,0.9,2.5s1.3,0.9,2.2,0.9c0.9,0,1.6-0.2,2.2-0.6L85.8,45.4L85.8,45.4z M93.1,45.8
		h-1v-3.5c0-1.3-0.5-1.9-1.4-1.9c-0.5,0-0.9,0.2-1.2,0.5c-0.3,0.4-0.5,0.8-0.5,1.4v3.4h-1v-9h1v3.9l0,0c0.5-0.8,1.1-1.1,2-1.1
		c1.4,0,2.1,0.8,2.1,2.5V45.8L93.1,45.8z M100,45.8h-1v-0.9l0,0c-0.4,0.7-1,1.1-1.9,1.1c-0.6,0-1.1-0.2-1.4-0.5s-0.5-0.7-0.5-1.3
		c0-1.1,0.7-1.8,2-2l1.8-0.3c0-1-0.4-1.5-1.3-1.5c-0.7,0-1.4,0.2-2,0.7v-1c0.6-0.4,1.3-0.6,2.1-0.6c1.4,0,2.1,0.8,2.1,2.3L100,45.8
		L100,45.8z M99,42.7l-1.5,0.2c-0.5,0.1-0.8,0.2-1,0.3c-0.2,0.2-0.3,0.4-0.3,0.9c0,0.3,0.1,0.5,0.3,0.7c0.2,0.2,0.5,0.3,0.8,0.3
		c0.5,0,0.9-0.2,1.2-0.5c0.3-0.3,0.5-0.8,0.5-1.3V42.7L99,42.7z M107.5,45.8h-1v-3.5c0-1.3-0.5-1.9-1.4-1.9c-0.5,0-0.9,0.2-1.2,0.5
		c-0.3,0.4-0.5,0.8-0.5,1.4v3.5h-1v-6.1h1v1l0,0c0.5-0.8,1.1-1.1,2-1.1c0.7,0,1.2,0.2,1.5,0.6c0.4,0.4,0.5,1,0.5,1.9L107.5,45.8
		L107.5,45.8z M115.1,45.8h-1v-3.5c0-1.3-0.5-1.9-1.4-1.9c-0.5,0-0.9,0.2-1.2,0.5c-0.3,0.4-0.5,0.8-0.5,1.4v3.5h-1v-6.1h1v1l0,0
		c0.5-0.8,1.1-1.1,2-1.1c0.7,0,1.2,0.2,1.5,0.6c0.4,0.4,0.5,1,0.5,1.9L115.1,45.8L115.1,45.8z M122.5,43h-4.3c0,0.7,0.2,1.2,0.5,1.6
		c0.3,0.4,0.8,0.6,1.4,0.6c0.7,0,1.3-0.2,1.9-0.7v0.9c-0.5,0.4-1.2,0.6-2.1,0.6s-1.5-0.3-2-0.8c-0.5-0.6-0.7-1.3-0.7-2.3
		c0-0.9,0.3-1.7,0.8-2.3s1.2-0.9,2-0.9s1.4,0.3,1.8,0.8s0.7,1.2,0.7,2.1L122.5,43L122.5,43z M121.5,42.2c0-0.6-0.1-1-0.4-1.3
		s-0.6-0.5-1.1-0.5s-0.8,0.2-1.2,0.5c-0.3,0.3-0.5,0.8-0.6,1.3H121.5L121.5,42.2z M125.5,44.1c0,0.6,0.2,0.8,0.6,0.8
		c0.2,0,0.3,0,0.5-0.1v0.9c-0.1,0-0.2,0-0.3,0.1c-0.1,0-0.3,0-0.4,0c-0.2,0-0.4,0-0.5-0.1c-0.2-0.1-0.3-0.2-0.4-0.3
		s-0.2-0.3-0.3-0.5c-0.1-0.2-0.1-0.4-0.1-0.7v-7.5h1L125.5,44.1L125.5,44.1z M137.7,45.4c-0.6,0.3-1.4,0.5-2.3,0.5
		c-1.2,0-2.2-0.4-2.9-1.2s-1.1-1.8-1.1-3.1c0-1.4,0.4-2.5,1.2-3.3s1.9-1.3,3.1-1.3c0.8,0,1.5,0.1,2,0.4v1.1c-0.6-0.3-1.3-0.5-2-0.5
		c-1,0-1.8,0.3-2.4,1c-0.6,0.7-0.9,1.5-0.9,2.6c0,1,0.3,1.9,0.9,2.5c0.6,0.6,1.3,0.9,2.2,0.9s1.6-0.2,2.2-0.6V45.4L137.7,45.4z
		 M144.9,45.8h-1v-1l0,0c-0.4,0.7-1,1.1-1.9,1.1c-1.4,0-2.2-0.9-2.2-2.6v-3.6h1v3.5c0,1.3,0.5,1.9,1.5,1.9c0.5,0,0.9-0.2,1.2-0.5
		c0.3-0.4,0.5-0.8,0.5-1.4v-3.5h1L144.9,45.8L144.9,45.8z M147.1,45.6v-1c0.5,0.4,1.1,0.6,1.8,0.6c0.9,0,1.3-0.3,1.3-0.9
		c0-0.2,0-0.3-0.1-0.4c-0.1-0.1-0.2-0.2-0.3-0.3s-0.3-0.2-0.4-0.2c-0.2-0.1-0.3-0.1-0.5-0.2c-0.3-0.1-0.5-0.2-0.7-0.3
		s-0.4-0.2-0.5-0.4c-0.1-0.1-0.2-0.3-0.3-0.5s-0.1-0.4-0.1-0.6c0-0.3,0.1-0.5,0.2-0.8c0.1-0.2,0.3-0.4,0.5-0.6
		c0.2-0.1,0.5-0.3,0.7-0.3c0.3-0.1,0.6-0.1,0.9-0.1c0.5,0,1,0.1,1.4,0.3v1c-0.4-0.3-1-0.4-1.5-0.4c-0.2,0-0.3,0-0.5,0.1
		c-0.1,0-0.3,0.1-0.4,0.2c-0.1,0.1-0.2,0.2-0.2,0.3c-0.1,0.1-0.1,0.2-0.1,0.3c0,0.2,0,0.3,0.1,0.4c0.1,0.1,0.1,0.2,0.3,0.3
		c0.1,0.1,0.2,0.2,0.4,0.2c0.2,0.1,0.3,0.1,0.5,0.2c0.3,0.1,0.5,0.2,0.7,0.3s0.4,0.2,0.5,0.4c0.1,0.1,0.3,0.3,0.3,0.5
		c0.1,0.2,0.1,0.4,0.1,0.6c0,0.3-0.1,0.6-0.2,0.8c-0.1,0.2-0.3,0.4-0.5,0.6c-0.2,0.1-0.5,0.3-0.8,0.3c-0.3,0.1-0.6,0.1-0.9,0.1
		C148.1,45.9,147.6,45.8,147.1,45.6L147.1,45.6z M156.2,45.7c-0.2,0.1-0.5,0.2-0.9,0.2c-1.1,0-1.6-0.6-1.6-1.8v-3.6h-1v-0.8h1v-1.5
		l1-0.3v1.8h1.5v0.8h-1.5V44c0,0.4,0.1,0.7,0.2,0.9c0.1,0.2,0.4,0.3,0.7,0.3c0.2,0,0.5-0.1,0.6-0.2V45.7L156.2,45.7z M160.6,45.9
		c-0.9,0-1.6-0.3-2.2-0.8c-0.5-0.6-0.8-1.3-0.8-2.3s0.3-1.8,0.8-2.4c0.6-0.6,1.3-0.9,2.3-0.9c0.9,0,1.6,0.3,2.1,0.8
		c0.5,0.6,0.8,1.3,0.8,2.3s-0.3,1.7-0.8,2.3C162.2,45.6,161.5,45.9,160.6,45.9L160.6,45.9z M160.7,40.4c-0.6,0-1.1,0.2-1.5,0.6
		c-0.4,0.4-0.5,1-0.5,1.8c0,0.7,0.2,1.3,0.6,1.7c0.4,0.4,0.9,0.6,1.5,0.6s1.1-0.2,1.5-0.6c0.3-0.4,0.5-1,0.5-1.7
		c0-0.8-0.2-1.3-0.5-1.8C161.8,40.6,161.3,40.4,160.7,40.4L160.7,40.4z M174.5,45.8h-1v-3.5c0-0.7-0.1-1.2-0.3-1.5s-0.6-0.5-1-0.5
		s-0.8,0.2-1.1,0.6c-0.3,0.4-0.4,0.8-0.4,1.4v3.5h-1v-3.6c0-1.2-0.5-1.8-1.4-1.8c-0.4,0-0.8,0.2-1.1,0.5c-0.3,0.4-0.4,0.8-0.4,1.4
		v3.5h-1v-6.1h1v1l0,0c0.4-0.7,1.1-1.1,1.9-1.1c0.4,0,0.8,0.1,1.1,0.3s0.5,0.5,0.6,0.9c0.4-0.8,1.1-1.3,2-1.3c1.3,0,2,0.8,2,2.5
		L174.5,45.8L174.5,45.8z M181.9,43h-4.3c0,0.7,0.2,1.2,0.5,1.6c0.3,0.4,0.8,0.6,1.4,0.6c0.7,0,1.3-0.2,1.9-0.7v0.9
		c-0.5,0.4-1.2,0.6-2.1,0.6c-0.9,0-1.5-0.3-2-0.8c-0.5-0.6-0.7-1.3-0.7-2.3c0-0.9,0.3-1.7,0.8-2.3s1.2-0.9,2-0.9s1.4,0.3,1.8,0.8
		c0.4,0.5,0.7,1.2,0.7,2.1L181.9,43L181.9,43z M180.9,42.2c0-0.6-0.1-1-0.4-1.3c-0.3-0.3-0.6-0.5-1.1-0.5s-0.8,0.2-1.2,0.5
		c-0.3,0.3-0.5,0.8-0.6,1.3H180.9L180.9,42.2z M187.2,40.7c-0.2-0.1-0.4-0.2-0.7-0.2c-0.4,0-0.8,0.2-1,0.6c-0.3,0.4-0.4,0.9-0.4,1.6
		v3.1h-1v-6.1h1V41l0,0c0.1-0.4,0.3-0.8,0.6-1s0.6-0.4,1-0.4c0.3,0,0.4,0,0.6,0.1v1H187.2z M198.2,45.4c-0.6,0.3-1.4,0.5-2.3,0.5
		c-1.2,0-2.2-0.4-2.9-1.2s-1.1-1.8-1.1-3.1c0-1.4,0.4-2.5,1.2-3.3s1.9-1.3,3.1-1.3c0.8,0,1.5,0.1,2,0.4v1.1c-0.6-0.3-1.3-0.5-2-0.5
		c-1,0-1.8,0.3-2.4,1c-0.6,0.7-0.9,1.5-0.9,2.6c0,1,0.3,1.9,0.9,2.5c0.6,0.6,1.3,0.9,2.2,0.9s1.6-0.2,2.2-0.6V45.4L198.2,45.4z
		 M204.8,45.8h-1v-0.9l0,0c-0.4,0.7-1,1.1-1.9,1.1c-0.6,0-1.1-0.2-1.4-0.5c-0.3-0.3-0.5-0.7-0.5-1.3c0-1.1,0.7-1.8,2-2l1.8-0.3
		c0-1-0.4-1.5-1.3-1.5c-0.7,0-1.4,0.2-2,0.7v-1c0.6-0.4,1.3-0.6,2.1-0.6c1.4,0,2.1,0.8,2.1,2.3L204.8,45.8L204.8,45.8z M203.9,42.7
		l-1.5,0.2c-0.5,0.1-0.8,0.2-1,0.3c-0.2,0.2-0.3,0.4-0.3,0.9c0,0.3,0.1,0.5,0.3,0.7s0.5,0.3,0.8,0.3c0.5,0,0.9-0.2,1.2-0.5
		s0.5-0.8,0.5-1.3V42.7L203.9,42.7z M210.5,40.7c-0.2-0.1-0.4-0.2-0.7-0.2c-0.4,0-0.8,0.2-1,0.6c-0.3,0.4-0.4,0.9-0.4,1.6v3.1h-1
		v-6.1h1V41l0,0c0.1-0.4,0.3-0.8,0.6-1s0.6-0.4,1-0.4c0.3,0,0.4,0,0.6,0.1v1H210.5z M217,43h-4.3c0,0.7,0.2,1.2,0.5,1.6
		c0.3,0.4,0.8,0.6,1.4,0.6c0.7,0,1.3-0.2,1.9-0.7v0.9c-0.5,0.4-1.2,0.6-2.1,0.6c-0.9,0-1.5-0.3-2-0.8c-0.5-0.6-0.7-1.3-0.7-2.3
		c0-0.9,0.3-1.7,0.8-2.3s1.2-0.9,2-0.9s1.4,0.3,1.8,0.8c0.4,0.5,0.7,1.2,0.7,2.1L217,43L217,43z M216,42.2c0-0.6-0.1-1-0.4-1.3
		c-0.3-0.3-0.6-0.5-1.1-0.5s-0.8,0.2-1.2,0.5c-0.3,0.3-0.5,0.8-0.6,1.3H216L216,42.2z"/>
</g>
</svg>
