<?xml version="1.0" encoding="utf-8"?>
<!-- Generator: Adobe Illustrator 15.1.0, SVG Export Plug-In . SVG Version: 6.00 Build 0)  -->
<!DOCTYPE svg PUBLIC "-//W3C//DTD SVG 1.1//EN" "http://www.w3.org/Graphics/SVG/1.1/DTD/svg11.dtd">
<svg version="1.1" id="Layer_1" xmlns="http://www.w3.org/2000/svg" xmlns:xlink="http://www.w3.org/1999/xlink" x="0px" y="0px"
	 width="150px" height="150px" viewBox="0 0 1984.25 1984.25" enable-background="new 0 0 1984.25 1984.25"
	 xml:space="preserve">
<g>
	<path fill="#FFFFFF" d="M273.826,1506.046c123.023,47.622,234.142,85.323,357.165,101.196c101.197,15.874,202.394,21.827,303.591,0
		c186.52-37.7,309.543-148.818,373.039-325.417c37.7-101.196,53.574-208.346,53.574-315.495
		c-3.969-148.819,113.103-271.843,263.905-271.843c150.804,0,271.843,117.071,271.843,265.89
		c-5.953,255.969-101.197,480.188-287.717,656.787c-388.913,357.165-986.172,315.495-1329.447-95.244
		C279.779,1521.92,279.779,1515.967,273.826,1506.046z"/>
	<path fill="#FFFFFF" d="M1186.582,1341.354c-85.323,123.023-192.473,192.472-335.339,214.299
		c-142.866,21.826-283.748-7.938-422.646-49.606c-69.448-21.827-138.897-53.575-202.393-79.37
		c-9.921-5.953-21.827-15.874-25.795-25.795c-75.401-138.897-111.118-283.748-111.118-432.566
		c0-107.15,47.622-192.473,148.819-240.095c101.197-43.653,196.441-31.748,283.748,37.701
		c69.449,59.527,95.244,132.944,91.275,224.22c-9.921,160.725,53.575,277.795,186.52,357.165
		C924.66,1420.723,1053.637,1414.771,1186.582,1341.354z"/>
	<path fill="#FFFFFF" d="M1363.18,123.023c132.944,0,246.047,107.149,246.047,246.047s-107.149,246.047-246.047,246.047
		s-246.047-107.149-246.047-246.047C1117.133,236.126,1224.282,123.023,1363.18,123.023z"/>
	<path fill="#FFFFFF" d="M611.148,615.117c-132.944,0-240.094-107.149-246.047-240.094c0-132.945,107.15-240.095,240.095-240.095
		s240.095,107.15,240.095,246.047C851.243,507.968,744.094,615.117,611.148,615.117z"/>
</g>
</svg>
